<?xml version="1.0" standalone="no"?>
<!DOCTYPE svg PUBLIC "-//W3C//DTD SVG 20010904//EN"
 "http://www.w3.org/TR/2001/REC-SVG-20010904/DTD/svg10.dtd">
<svg version="1.0" xmlns="http://www.w3.org/2000/svg"
 width="1200.000000pt" height="1200.000000pt" viewBox="0 0 1200.000000 1200.000000"
 preserveAspectRatio="xMidYMid meet">
<metadata>
Created by potrace 1.11, written by Peter Selinger 2001-2013
</metadata>
<g transform="translate(0.000000,1200.000000) scale(0.100000,-0.100000)"
fill="#000000" stroke="none">
<path d="M4962 11429 c-122 -20 -328 -108 -462 -197 -296 -195 -501 -499 -604
-897 -47 -178 -61 -300 -60 -500 1 -201 16 -275 64 -316 16 -14 30 -30 30 -35
0 -5 -35 -30 -77 -55 -330 -195 -470 -302 -594 -454 -29 -36 -60 -65 -70 -65
-29 0 -194 -242 -411 -603 -82 -138 -368 -705 -368 -732 0 -2 -13 -33 -29 -67
-65 -144 -126 -356 -107 -375 9 -9 8 -10 60 122 26 66 56 138 66 160 10 22 34
78 53 125 60 146 235 508 308 636 12 22 32 57 44 79 13 22 41 69 64 105 22 36
59 95 81 132 38 63 87 114 98 103 7 -7 -31 -83 -74 -148 -19 -28 -34 -56 -34
-62 0 -5 -7 -23 -16 -40 -47 -86 -154 -299 -183 -365 -89 -196 -131 -295 -131
-310 0 -9 -4 -20 -8 -25 -5 -6 -19 -37 -31 -70 -13 -33 -27 -69 -31 -80 -4
-11 -20 -60 -34 -110 -14 -49 -31 -103 -37 -120 -6 -16 -20 -64 -31 -105 -10
-41 -23 -84 -28 -95 -8 -19 -29 -83 -68 -215 -9 -30 -20 -59 -24 -65 -4 -5 -8
-20 -8 -35 0 -14 -6 -33 -14 -42 -10 -14 -12 4 -12 110 0 141 -12 259 -27 269
-6 4 -7 -13 -3 -48 16 -129 18 -218 7 -298 -41 -292 -114 -535 -229 -756 -37
-70 -169 -215 -272 -298 -49 -39 -50 -52 -4 -37 16 5 40 12 54 14 14 3 39 18
56 33 30 28 203 249 260 333 106 155 156 243 168 295 4 16 17 50 28 75 33 75
79 170 81 170 1 0 2 -107 2 -237 1 -142 6 -272 14 -323 23 -154 32 -204 43
-252 11 -43 10 -51 -8 -75 -87 -119 -164 -393 -164 -582 0 -65 19 -182 31
-195 5 -6 9 -17 9 -26 0 -36 53 -121 111 -179 61 -61 94 -79 414 -232 11 -5
54 -20 95 -33 l75 -24 52 -86 c141 -234 376 -479 620 -644 113 -77 322 -179
460 -225 144 -48 144 -48 73 -110 -89 -78 -393 -395 -515 -537 -247 -287 -417
-524 -553 -770 -14 -25 -33 -54 -43 -65 -10 -11 -40 -69 -67 -130 -27 -60 -61
-135 -75 -165 -21 -47 -75 -168 -156 -354 -11 -27 -21 -53 -21 -57 0 -5 -8
-28 -19 -52 -27 -60 -85 -213 -194 -507 -137 -369 -170 -469 -172 -521 -1 -25
-5 -51 -9 -57 -5 -9 -290 -12 -1207 -12 l-1199 0 0 -30 0 -30 4543 -4 c2498
-2 4551 -4 4562 -4 11 0 63 0 115 1 l95 2 3 -28 c3 -23 8 -27 33 -27 24 0 29
4 29 24 0 13 7 27 16 30 9 3 598 6 1310 6 l1294 0 0 30 0 30 -1310 0 -1310 0
0 63 c-1 102 -41 348 -84 507 -8 30 -24 91 -36 135 -11 44 -25 94 -30 110 -6
17 -26 84 -46 150 -58 194 -132 411 -170 501 -29 67 -34 88 -27 110 15 46 -11
208 -55 334 -47 138 -72 217 -102 330 -86 327 -257 624 -563 979 -55 64 -74
92 -65 97 7 5 49 26 93 47 203 98 383 222 533 369 255 248 387 459 438 701 30
144 13 282 -64 528 -33 105 -34 162 -2 209 22 33 66 149 137 363 15 43 30 74
33 70 9 -9 47 -199 60 -296 5 -38 14 -74 20 -82 8 -9 5 -37 -10 -106 -12 -51
-20 -104 -18 -118 4 -31 33 -39 47 -13 11 21 33 149 51 292 6 52 15 129 20
170 40 324 54 679 38 981 -7 123 -11 310 -10 414 2 192 -3 249 -39 430 -90
448 -316 951 -566 1261 -18 23 -33 43 -33 46 0 2 26 2 58 0 231 -17 713 201
844 382 49 68 33 76 -33 17 -54 -47 -85 -63 -208 -108 -183 -66 -465 -123
-611 -123 -117 0 -249 34 -370 95 -98 50 -111 23 -14 -31 138 -77 238 -103
401 -104 126 0 210 11 360 46 56 13 108 24 115 24 21 -1 -145 -78 -224 -104
-113 -37 -174 -49 -258 -49 -62 -1 -84 4 -114 21 -45 26 -46 27 -46 5 0 -10
15 -28 34 -40 19 -12 48 -46 65 -75 42 -71 50 -83 94 -150 20 -31 37 -59 37
-63 0 -3 11 -22 23 -43 22 -34 57 -96 111 -197 65 -119 154 -343 217 -543 42
-134 45 -152 28 -169 -9 -9 -9 -23 0 -55 24 -93 57 -303 72 -468 16 -177 23
-892 10 -1050 -21 -249 -32 -345 -44 -384 l-11 -38 -18 98 c-10 55 -23 119
-28 144 -21 85 -21 95 -6 155 21 79 20 86 -9 50 -13 -16 -26 -27 -29 -25 -2 3
-23 61 -46 130 -72 215 -171 425 -282 595 -32 49 -58 101 -58 115 0 36 -46
293 -65 365 -9 33 -20 64 -26 70 -14 14 -11 -38 11 -162 10 -61 22 -142 26
-179 6 -60 5 -67 -9 -61 -23 9 -21 -9 5 -51 18 -30 23 -61 34 -246 14 -221 7
-454 -20 -610 l-12 -71 -13 150 c-7 83 -16 177 -21 210 -6 33 -14 111 -20 173
-6 63 -17 137 -25 165 -8 29 -17 63 -20 77 -8 29 -12 39 -56 145 -35 85 -102
210 -152 285 -41 61 -135 168 -158 181 -42 22 -35 -6 20 -84 161 -224 284
-484 321 -673 45 -233 60 -369 66 -616 8 -277 16 -307 44 -161 5 29 19 74 31
100 11 25 33 98 47 162 26 110 27 129 26 384 0 147 2 267 5 267 3 0 36 -60 73
-133 71 -139 69 -130 71 -299 2 -105 -26 -353 -73 -649 -11 -70 -20 -139 -20
-155 0 -32 45 -85 66 -77 11 4 11 0 -1 -23 -19 -36 -19 -116 -2 -152 15 -28
48 -151 66 -240 15 -74 14 -234 -3 -312 -16 -78 -64 -196 -111 -275 -19 -32
-35 -59 -35 -62 0 -14 -123 -165 -193 -237 -178 -183 -433 -362 -637 -446 -88
-36 -109 -37 -156 -5 -57 39 -84 28 -49 -19 22 -30 19 -36 -21 -36 -89 0 -147
-41 -110 -78 14 -14 25 -14 98 -3 46 7 93 14 105 17 17 3 43 -19 125 -107 56
-61 122 -141 145 -178 23 -36 51 -75 62 -86 12 -12 21 -28 21 -38 0 -9 9 -26
20 -37 26 -26 65 -89 75 -120 4 -14 14 -29 21 -35 12 -10 61 -103 118 -227 14
-31 31 -80 37 -109 10 -45 9 -54 -5 -64 -9 -7 -16 -17 -16 -23 0 -6 -9 -14
-20 -17 -11 -3 -20 -12 -20 -18 0 -7 -21 -35 -48 -64 -26 -28 -52 -60 -59 -70
-6 -10 -16 -17 -22 -15 -6 1 -11 -4 -11 -12 0 -13 -72 -103 -144 -180 -16 -17
-40 -47 -54 -66 -14 -19 -41 -50 -59 -67 -18 -18 -33 -37 -33 -42 0 -5 -30
-46 -67 -90 -52 -63 -69 -78 -80 -70 -9 8 -13 8 -13 0 0 -6 5 -11 10 -11 19 0
10 -15 -41 -70 -28 -30 -71 -83 -96 -117 -25 -35 -49 -63 -54 -63 -5 0 -9 -6
-9 -14 0 -8 -4 -16 -9 -18 -9 -3 -84 -95 -121 -148 -13 -19 -31 -42 -40 -50
-9 -8 -32 -35 -51 -60 -19 -25 -51 -63 -72 -85 -70 -75 -137 -155 -137 -164 0
-6 -9 -13 -20 -16 -11 -3 -20 -12 -20 -20 0 -7 -3 -15 -8 -17 -4 -2 -23 -23
-42 -48 -19 -25 -46 -57 -60 -71 -14 -14 -42 -43 -62 -65 -21 -21 -52 -51 -70
-66 -87 -71 -187 -154 -223 -184 -22 -19 -46 -34 -52 -34 -7 0 -13 -3 -13 -7
0 -5 -27 -35 -61 -68 -33 -33 -74 -75 -91 -93 -17 -17 -36 -32 -42 -32 -6 0
-17 -9 -24 -20 -12 -20 -23 -20 -586 -20 -316 0 -577 3 -579 8 -5 7 60 212 81
256 6 12 21 46 35 76 14 30 29 75 33 100 9 53 40 110 61 110 8 0 12 4 8 10 -6
10 45 110 57 110 4 0 8 6 8 13 0 6 14 30 30 51 17 22 30 45 30 52 0 6 13 17
29 24 41 17 66 48 85 104 14 40 88 144 156 217 8 9 42 51 75 93 33 43 76 95
95 115 100 108 140 154 140 162 0 5 9 9 21 9 11 0 18 4 14 9 -3 5 21 36 53 68
32 32 63 65 68 74 9 16 92 111 180 204 22 24 51 57 65 74 13 18 43 52 67 76
23 25 42 49 42 53 0 4 34 44 76 87 41 44 84 94 95 112 12 18 27 33 35 33 7 0
20 13 29 30 8 16 26 40 40 54 14 14 25 27 25 30 0 3 15 22 33 42 80 91 123
130 137 127 13 -4 13 -3 0 6 -13 9 -8 18 30 57 120 125 273 274 281 274 5 0 9
5 9 11 0 17 40 49 61 49 12 0 16 5 13 15 -4 8 -2 15 3 15 5 0 31 20 58 45 65
60 191 155 204 155 6 0 11 14 11 30 0 60 -54 34 -220 -104 -94 -77 -276 -243
-355 -321 -67 -67 -354 -389 -534 -599 -56 -66 -117 -131 -136 -145 -19 -14
-34 -31 -35 -36 0 -6 -9 -17 -20 -25 -11 -8 -20 -18 -20 -22 0 -4 -17 -25 -37
-46 -21 -21 -63 -66 -93 -101 -30 -35 -79 -89 -109 -120 -30 -31 -75 -81 -99
-111 -25 -30 -64 -75 -88 -100 -88 -93 -104 -112 -104 -118 0 -4 -22 -28 -48
-54 -27 -25 -59 -62 -73 -82 -13 -20 -29 -36 -35 -36 -6 0 -17 -13 -23 -28 -6
-15 -30 -47 -51 -71 -22 -24 -40 -47 -40 -52 0 -16 -26 -10 -48 11 -12 11 -25
20 -30 20 -10 0 -63 58 -79 88 -7 12 -19 32 -25 45 -15 25 -66 95 -85 115 -7
7 -13 19 -13 26 0 7 -25 35 -56 62 -66 58 -82 83 -63 96 9 5 4 6 -13 2 -25 -6
-40 8 -20 19 4 2 1 2 -7 0 -17 -4 -432 417 -424 430 4 6 1 7 -6 3 -12 -8 -212
189 -538 530 -84 87 -191 200 -239 249 -47 50 -97 107 -111 128 -37 54 -93 63
-93 15 0 -20 47 -86 100 -139 14 -14 57 -61 95 -104 39 -44 108 -118 155 -165
47 -48 112 -117 144 -154 33 -38 186 -195 340 -350 286 -287 405 -413 397
-421 -2 -3 3 -5 12 -5 9 0 17 -5 17 -11 0 -6 7 -17 15 -25 8 -9 15 -30 15 -47
0 -17 22 -76 49 -132 26 -55 52 -110 55 -122 4 -13 12 -23 17 -23 5 0 9 -7 9
-16 0 -9 24 -66 53 -128 30 -61 60 -127 67 -146 20 -51 59 -99 86 -106 29 -7
30 -23 4 -52 -11 -12 -20 -24 -20 -28 0 -3 -11 -19 -25 -36 -14 -16 -25 -35
-25 -42 0 -7 -12 -27 -27 -45 -16 -19 -28 -37 -28 -41 0 -4 -33 -41 -74 -81
-95 -96 -111 -114 -111 -127 0 -14 -37 -81 -57 -104 -8 -9 -25 -36 -37 -60
-27 -53 -49 -91 -56 -98 -3 -3 -17 -26 -30 -53 l-25 -47 -460 2 -460 3 -3 30
c-1 17 -7 39 -12 50 -4 11 -11 40 -15 65 -9 61 -21 126 -35 180 -6 25 -18 74
-25 110 -8 36 -28 115 -46 175 -17 61 -31 124 -31 142 0 18 -5 34 -14 37 -8 3
-14 14 -14 25 0 11 -4 23 -10 26 -5 3 -10 17 -10 30 0 14 -8 39 -18 57 -10 18
-24 53 -32 78 -7 25 -17 49 -22 54 -4 6 -8 17 -8 25 0 9 -14 45 -31 81 -17 36
-34 74 -38 85 -15 40 -156 311 -196 375 -12 19 -27 52 -34 72 -7 20 -19 42
-27 48 -7 7 -14 18 -14 24 0 6 -16 35 -35 63 -19 29 -35 55 -35 57 0 3 -8 15
-17 27 -10 12 -29 36 -43 53 -14 17 -37 48 -50 68 -14 21 -37 43 -52 49 -16 6
-28 15 -28 20 0 5 -7 9 -15 9 -25 0 -27 -4 80 145 27 39 52 72 55 75 4 3 17
24 30 48 13 23 27 42 32 42 4 0 8 4 8 9 0 4 21 32 48 62 71 79 148 167 205
233 29 33 85 93 125 135 39 41 72 79 72 85 0 6 20 24 44 41 24 16 42 33 40 36
-2 4 15 24 39 46 23 21 63 62 89 90 26 28 60 60 76 72 31 22 72 28 72 11 0 -5
10 -10 23 -10 13 0 28 -5 35 -12 14 -14 83 -18 99 -5 14 10 90 0 99 -14 3 -5
16 -9 30 -9 13 0 32 -4 42 -10 9 -5 55 -24 102 -41 111 -40 146 -56 165 -75 8
-8 15 -11 15 -6 0 6 15 5 38 -3 20 -7 57 -18 82 -25 25 -7 53 -16 62 -21 10
-5 27 -9 37 -9 11 0 23 -4 26 -10 8 -13 75 -13 75 0 0 10 64 -22 93 -48 9 -8
17 -12 17 -8 0 4 17 -2 38 -12 20 -11 63 -33 96 -48 32 -16 61 -36 63 -45 3
-10 12 -15 22 -12 9 2 52 -15 96 -38 44 -23 90 -47 102 -53 13 -6 23 -14 23
-18 0 -5 6 -8 13 -8 7 0 42 -16 77 -35 36 -19 100 -51 143 -72 53 -26 77 -43
77 -55 0 -10 5 -18 11 -18 5 0 7 5 3 11 -4 7 -3 10 2 7 45 -20 70 -34 74 -39
3 -4 26 -17 53 -29 26 -12 47 -26 47 -31 0 -5 6 -9 13 -9 7 0 28 -13 47 -30
19 -16 40 -29 46 -30 6 0 28 -13 50 -30 21 -16 42 -30 47 -30 13 0 69 -54 82
-80 7 -14 10 -31 8 -37 -3 -7 3 -13 12 -13 12 0 14 4 5 19 -15 30 -12 38 6 13
8 -12 22 -22 30 -22 9 0 21 -14 27 -30 7 -18 17 -28 24 -26 7 3 13 1 13 -4 0
-13 37 -22 60 -15 11 3 20 13 20 20 0 46 -326 309 -450 362 -8 3 -33 18 -55
33 -44 29 -150 88 -294 162 -51 27 -128 67 -170 90 -70 38 -541 276 -607 306
-16 8 -67 31 -114 52 -124 55 -172 77 -298 136 -63 30 -133 59 -155 65 -23 6
-78 23 -122 37 -94 31 -229 35 -271 7 -23 -15 -79 -11 -90 6 -3 5 -16 9 -29 9
-13 0 -27 5 -30 10 -3 6 -17 10 -30 10 -13 0 -27 4 -30 10 -3 5 -13 10 -22 10
-29 0 -260 117 -359 182 -208 136 -449 376 -578 575 -25 39 -46 76 -46 82 0 6
17 11 38 11 42 0 128 37 155 67 10 11 21 37 24 57 4 29 2 36 -11 36 -9 0 -26
-12 -39 -26 -36 -42 -70 -54 -152 -54 l-76 0 -16 38 c-17 41 -29 52 -56 52
-15 0 -17 -5 -11 -36 7 -37 7 -37 -22 -30 -16 4 -42 14 -59 21 -16 8 -80 36
-142 64 -293 132 -356 201 -393 428 -24 148 18 394 97 561 19 40 31 41 44 2 6
-17 15 -30 19 -30 14 0 22 57 14 105 l-6 46 88 88 c118 116 232 181 319 181
44 0 134 -30 161 -53 15 -14 30 -45 40 -82 55 -214 73 -287 84 -340 7 -33 27
-112 45 -175 19 -63 37 -137 41 -165 4 -27 12 -58 19 -68 11 -16 14 -16 30 9
12 18 15 36 10 58 -17 86 -25 165 -30 306 -5 148 -5 153 10 120 9 -19 25 -81
36 -137 42 -217 148 -498 251 -659 86 -137 229 -287 341 -358 32 -21 60 -36
63 -34 2 2 -49 56 -114 119 -134 131 -199 214 -274 349 -79 142 -156 325 -187
448 -49 193 -61 258 -81 452 -22 227 -6 698 30 865 21 94 22 105 13 105 -9 0
-20 -28 -38 -97 -12 -43 -27 -25 -21 25 3 26 8 124 11 217 6 178 16 293 42
460 9 55 19 127 24 160 5 33 18 105 29 160 29 139 40 194 47 238 3 20 9 40 14
43 5 3 9 20 9 39 0 19 5 37 10 40 6 3 10 19 10 35 0 16 4 31 9 34 4 3 11 25
14 48 3 24 13 66 21 93 7 28 21 74 29 103 8 28 12 52 9 52 -11 0 -85 -120
-106 -169 -22 -55 -74 -228 -86 -291 -5 -25 -14 -63 -20 -85 -14 -54 -69 -345
-80 -425 -25 -180 -31 -222 -40 -305 -6 -49 -14 -124 -20 -165 -27 -212 -53
-778 -42 -895 11 -114 6 -172 -20 -208 l-20 -28 25 -27 c14 -15 30 -39 35 -53
10 -24 16 -162 12 -239 l-2 -35 -8 30 c-42 153 -64 230 -81 286 -24 84 -24 92
1 84 32 -10 24 19 -15 56 -22 21 -40 52 -52 88 -9 31 -23 67 -30 81 -12 22
-13 18 -7 -37 7 -70 5 -72 -54 -47 -22 10 -66 17 -108 17 -60 0 -81 -5 -135
-31 -35 -17 -76 -39 -91 -48 -15 -10 -30 -15 -34 -11 -31 30 -55 674 -35 918
24 290 91 659 152 841 16 48 29 96 29 107 0 11 5 23 10 26 6 3 10 15 10 26 0
10 4 27 9 37 5 9 13 28 19 42 5 14 17 41 25 60 37 86 65 158 77 195 6 22 21
60 32 85 11 25 24 54 29 65 4 11 10 27 11 35 2 8 6 17 9 20 3 3 29 50 58 104
89 168 182 292 301 401 35 33 90 85 120 116 67 67 111 101 210 160 41 24 104
73 140 109 36 36 94 90 130 120 36 30 82 70 102 89 21 19 52 44 70 56 40 27
211 117 253 133 17 6 55 21 85 32 101 39 204 70 295 90 50 10 151 37 225 60
295 89 609 131 963 129 227 -2 247 -5 265 -42 11 -23 16 -26 33 -16 11 5 23
17 26 25 7 19 54 18 198 -6 220 -37 431 -99 711 -210 76 -31 99 -40 174 -73
136 -60 343 -127 392 -127 44 0 304 -179 411 -283 29 -29 83 -91 120 -138 99
-128 120 -149 146 -142 11 3 21 9 21 14 0 16 -208 265 -270 322 -117 109 -302
214 -515 293 -55 20 -146 56 -203 81 -411 175 -714 276 -942 313 -41 6 -104
17 -139 23 l-64 12 -2 150 c-3 177 -15 227 -85 371 -93 192 -189 298 -465 514
-194 152 -316 233 -449 300 -154 77 -248 93 -394 69z m231 -64 c67 -17 128
-47 252 -122 76 -47 228 -153 284 -199 9 -7 57 -45 106 -84 236 -187 352 -338
429 -561 18 -50 22 -210 6 -239 -5 -10 -13 -42 -17 -70 l-8 -51 -285 -3 c-188
-3 -327 -9 -408 -20 -68 -9 -127 -14 -133 -11 -19 12 -8 23 31 30 120 20 -12
41 -244 38 -176 -2 -327 -22 -456 -59 -47 -14 -98 -29 -115 -34 -45 -13 -129
-44 -135 -50 -20 -20 -115 -38 -122 -22 -1 4 -20 20 -40 35 -21 15 -38 35 -38
43 0 7 -3 14 -8 14 -4 0 -22 25 -41 56 l-33 56 6 122 c7 150 14 239 22 291 19
129 24 166 30 223 4 34 11 65 15 68 5 3 9 34 9 70 0 35 4 64 9 64 5 0 11 15
15 32 12 62 171 190 341 278 205 104 389 141 528 105z m4274 -3932 c-3 -10 -5
-4 -5 12 0 17 2 24 5 18 2 -7 2 -21 0 -30z m20 -70 c-3 -10 -5 -4 -5 12 0 17
2 24 5 18 2 -7 2 -21 0 -30z m-7233 -992 c9 -14 -19 -122 -40 -157 -44 -72
-94 -138 -94 -123 0 9 16 59 35 110 19 52 35 99 35 104 0 16 39 75 49 75 6 0
12 -4 15 -9z m326 -228 c0 -21 7 -90 14 -153 8 -63 12 -118 10 -122 -13 -21
-24 -3 -24 41 0 28 -4 53 -10 56 -6 3 -10 52 -10 111 0 63 4 104 10 104 6 0
10 -17 10 -37z m6719 -163 c12 -41 26 -85 32 -98 14 -36 11 -83 -12 -142 -12
-30 -33 -89 -49 -130 -83 -226 -99 -265 -107 -256 -6 5 5 104 38 341 18 131
33 251 45 354 5 38 7 41 18 25 7 -11 23 -53 35 -94z m-7192 78 c-3 -8 -6 -5
-6 6 -1 11 2 17 5 13 3 -3 4 -12 1 -19z m7053 -748 c0 -5 -2 -10 -4 -10 -3 0
-8 5 -11 10 -3 6 -1 10 4 10 6 0 11 -4 11 -10z m-380 -3047 c0 -7 9 -41 19
-75 11 -35 24 -82 31 -105 6 -24 15 -43 20 -43 6 0 10 -13 10 -30 0 -16 5 -30
10 -30 6 0 10 -18 10 -39 0 -22 4 -42 9 -45 4 -3 11 -31 16 -63 4 -32 11 -85
17 -118 5 -33 10 -82 11 -110 1 -27 6 -56 10 -62 4 -7 10 -34 13 -60 3 -27 13
-122 24 -213 10 -91 24 -212 30 -270 15 -144 30 -509 30 -723 l0 -177 -933 0
c-513 1 -938 4 -944 8 -14 9 15 45 71 87 22 17 53 43 69 59 23 24 31 27 38 15
8 -11 9 -11 7 2 -3 14 94 119 109 119 16 0 146 156 154 185 4 14 12 19 28 17
18 -3 22 0 18 11 -3 9 -3 17 1 19 4 2 25 26 47 53 22 28 43 52 46 55 3 3 9 13
12 23 4 11 16 21 27 24 13 4 19 11 16 22 -5 14 31 80 65 119 10 12 13 12 21 0
6 -9 7 -6 3 10 -4 15 0 33 11 50 10 15 31 52 46 83 15 31 34 62 43 69 8 7 15
18 15 24 0 6 17 38 38 71 21 33 46 77 55 98 10 20 21 37 25 37 4 0 12 15 18
33 7 17 21 58 33 91 25 67 22 86 -14 86 l-26 0 33 41 c18 22 45 54 61 70 15
16 27 33 27 37 0 4 16 25 36 47 19 22 42 52 50 67 8 15 20 31 27 35 6 4 31 33
53 63 23 30 60 75 82 100 23 25 42 48 42 51 0 3 24 30 53 60 28 30 59 68 67
83 8 15 27 40 42 57 27 28 29 28 48 12 11 -10 20 -23 20 -30z m-5419 -113 c13
0 39 -26 39 -39 0 -5 8 -12 18 -16 9 -3 35 -31 57 -62 22 -30 50 -67 62 -82
13 -14 23 -29 23 -33 0 -3 16 -34 35 -68 19 -34 35 -66 35 -72 0 -5 6 -16 14
-23 9 -10 12 -28 9 -57 -4 -34 2 -58 27 -113 64 -142 70 -156 70 -175 0 -11 4
-20 8 -20 4 0 13 -21 21 -47 7 -27 17 -57 21 -68 5 -11 16 -47 25 -80 9 -33
22 -76 30 -95 22 -59 45 -142 55 -205 5 -33 14 -76 20 -95 15 -51 37 -163 50
-255 6 -44 15 -102 21 -128 5 -27 9 -65 9 -86 0 -20 5 -42 10 -47 7 -7 10 -46
8 -95 l-3 -84 -500 -3 c-275 -1 -515 0 -533 3 l-33 6 6 92 c3 51 10 128 15
172 14 127 24 311 36 675 3 113 12 230 20 260 19 79 44 173 51 190 3 8 8 28
10 45 3 16 9 35 13 41 9 10 38 107 47 157 3 15 9 30 14 33 5 3 9 14 9 25 0 10
5 19 10 19 6 0 10 15 10 34 0 31 11 76 30 121 5 11 14 37 20 57 6 20 18 42 26
49 8 6 23 32 35 58 17 39 22 43 30 29 6 -10 15 -18 20 -18z m4502 -940 c-9
-16 -21 -30 -26 -30 -5 0 1 14 13 30 12 17 24 30 26 30 3 0 -3 -13 -13 -30z
m-70 -97 c-15 -25 -46 -67 -73 -100 -6 -7 -10 -14 -10 -17 0 -6 -101 -170
-109 -176 -14 -11 -51 -137 -51 -172 0 -32 -5 -41 -34 -60 -19 -13 -64 -47
-100 -76 -36 -29 -66 -48 -66 -43 0 6 6 14 13 18 14 10 32 36 52 80 8 17 20
35 26 38 6 5 9 31 7 66 -3 56 -1 62 32 98 92 104 137 149 158 160 14 8 21 18
18 27 -3 8 2 23 12 32 9 10 27 32 40 48 69 90 125 140 85 77z"/>
<path d="M3401 2074 c0 -11 3 -14 6 -6 3 7 2 16 -1 19 -3 4 -6 -2 -5 -13z"/>
<path d="M7520 664 c0 -8 5 -12 10 -9 6 4 8 11 5 16 -9 14 -15 11 -15 -7z"/>
<path d="M6460 9519 c0 -5 5 -7 10 -4 6 3 10 8 10 11 0 2 -4 4 -10 4 -5 0 -10
-5 -10 -11z"/>
<path d="M6550 9506 c-30 -33 -30 -81 -1 -176 67 -218 126 -388 143 -411 20
-27 36 -78 45 -139 2 -19 8 -44 13 -55 4 -11 13 -47 20 -80 6 -33 16 -68 21
-77 5 -10 9 -26 9 -36 0 -10 18 -70 41 -133 22 -63 43 -122 46 -131 32 -104
73 332 43 464 -23 106 -34 189 -34 266 -1 45 1 82 3 82 2 0 12 -10 22 -22 11
-11 19 -16 19 -10 0 15 -25 58 -86 153 -28 41 -58 97 -69 125 -10 27 -27 64
-37 82 -10 18 -18 38 -18 45 0 7 -15 27 -33 45 -43 42 -111 46 -147 8z"/>
<path d="M5611 9385 c-22 -24 -41 -51 -41 -59 0 -7 -7 -16 -14 -19 -40 -16
-164 -407 -129 -407 12 0 84 107 121 180 37 75 119 337 108 348 -2 1 -22 -18
-45 -43z"/>
<path d="M7290 9345 c0 -11 12 -72 26 -135 14 -63 29 -134 34 -157 10 -45 36
-103 47 -103 9 0 -6 126 -23 188 -34 122 -43 148 -63 187 -14 26 -21 32 -21
20z"/>
<path d="M7680 9261 c0 -5 33 -78 74 -162 93 -194 101 -214 132 -296 25 -70
40 -105 55 -135 5 -10 9 -25 9 -33 0 -8 4 -15 9 -15 5 0 12 -8 14 -17 2 -10 2
-2 0 17 -14 109 -159 452 -255 603 -30 47 -38 55 -38 38z"/>
<path d="M7925 9108 c-9 -29 -11 -94 -4 -113 4 -11 15 -46 24 -78 22 -76 54
-109 69 -71 17 45 5 127 -29 200 -34 71 -51 89 -60 62z"/>
<path d="M6950 9024 c0 -7 7 -25 15 -40 8 -16 15 -22 15 -14 -1 18 -29 70 -30
54z"/>
<path d="M6990 8943 c0 -11 9 -31 20 -44 25 -31 25 -19 0 28 -15 29 -20 33
-20 16z"/>
<path d="M5835 8905 c-5 -17 -11 -188 -13 -385 -1 -195 -5 -429 -8 -520 -6
-159 7 -431 26 -555 5 -33 14 -96 20 -140 16 -109 25 -156 65 -330 20 -85 89
-294 111 -336 8 -17 14 -33 11 -35 -7 -7 -367 389 -462 507 -33 41 -69 84 -80
96 -34 36 -139 213 -177 298 -46 104 -93 244 -127 383 -44 177 -80 556 -62
642 13 62 14 70 2 70 -10 0 -19 -47 -28 -145 -3 -45 -12 -80 -24 -97 -11 -14
-19 -28 -19 -31 0 -3 -37 -65 -81 -138 -45 -74 -94 -155 -110 -181 -76 -128
-231 -367 -244 -378 -8 -7 -15 -16 -15 -20 0 -9 -49 -84 -96 -146 -40 -54
-175 -214 -179 -214 -12 0 146 324 197 405 28 45 93 164 148 270 81 156 164
312 185 346 13 19 40 69 60 110 21 40 46 86 56 101 20 28 25 58 10 58 -12 0
-91 -104 -144 -189 -69 -112 -116 -199 -209 -386 -49 -99 -98 -198 -109 -220
-117 -225 -231 -466 -269 -569 -25 -66 -22 -94 5 -49 10 18 29 34 41 37 42 11
165 159 314 377 77 114 134 195 140 199 4 3 10 12 14 20 3 8 4 4 1 -10 -2 -14
-5 -35 -5 -47 0 -12 -10 -31 -21 -42 -38 -35 0 -70 42 -38 18 14 197 235 278
345 30 39 58 72 62 72 5 0 9 -15 9 -32 1 -91 85 -377 158 -538 20 -45 123
-219 144 -245 9 -11 58 -72 109 -135 50 -63 113 -138 138 -165 25 -28 80 -89
121 -135 75 -84 165 -182 232 -252 20 -20 67 -79 105 -130 38 -51 77 -99 87
-107 34 -28 28 1 -13 59 -88 126 -192 370 -250 585 -28 106 -35 140 -67 325
-36 211 -75 598 -73 719 1 62 2 60 18 -49 7 -41 16 -93 21 -115 4 -22 14 -67
21 -100 20 -98 58 -245 86 -325 53 -158 202 -520 244 -594 6 -11 22 -39 35
-63 62 -112 73 -131 103 -177 17 -28 31 -57 31 -67 0 -22 38 -69 56 -69 7 0
35 -16 60 -35 60 -46 133 -89 140 -82 3 3 -23 34 -58 69 -71 69 -149 161 -166
194 -17 32 -64 394 -77 589 -13 200 -16 233 -21 285 -8 83 -15 111 -25 104
-24 -14 2 -479 42 -758 5 -38 8 -70 6 -72 -5 -5 -79 112 -99 156 -9 19 -26 58
-38 85 -12 28 -30 68 -40 90 -29 64 -79 192 -111 284 -62 176 -69 197 -79 241
-5 25 -19 79 -30 120 -57 210 -87 466 -100 850 -6 168 -12 323 -13 345 l-2 40
-10 -30z m-729 -642 c-10 -10 -19 5 -10 18 6 11 8 11 12 0 2 -7 1 -15 -2 -18z
m24 -134 c0 -20 -27 -56 -36 -47 -7 7 17 68 27 68 5 0 9 -9 9 -21z"/>
<path d="M7040 8826 c0 -13 43 -97 47 -92 7 7 -30 96 -39 96 -5 0 -8 -2 -8 -4z"/>
<path d="M7090 8712 c0 -6 7 -26 14 -44 8 -18 25 -67 37 -108 21 -74 39 -110
39 -78 0 15 -15 66 -30 103 -4 11 -18 45 -30 75 -24 59 -30 70 -30 52z"/>
<path d="M8607 8683 c-11 -10 -8 -49 4 -80 33 -79 52 -117 69 -135 10 -12 26
-35 34 -52 8 -17 26 -45 41 -61 14 -17 37 -50 52 -75 15 -25 39 -63 55 -84 15
-21 28 -45 28 -53 0 -7 4 -13 9 -13 5 0 11 -8 14 -17 4 -10 20 -40 37 -68 29
-48 160 -311 193 -385 38 -90 45 -108 57 -150 8 -25 17 -49 22 -55 4 -5 8 -19
8 -32 0 -13 4 -31 9 -41 21 -41 57 -175 86 -317 29 -146 56 -270 66 -301 5
-17 9 -47 9 -67 0 -20 5 -39 10 -42 6 -3 10 -19 10 -35 0 -16 5 -32 10 -35 6
-3 10 -19 10 -35 0 -16 5 -32 10 -35 6 -3 10 -19 10 -36 0 -41 18 -36 27 9 13
65 6 399 -11 507 -21 131 -25 154 -35 190 -5 17 -14 57 -21 90 -7 33 -17 64
-22 70 -4 5 -8 18 -8 30 0 18 -46 159 -69 210 -5 11 -21 56 -37 100 -15 44
-35 91 -44 105 -9 14 -23 41 -30 60 -15 38 -87 178 -101 196 -5 6 -22 35 -37
65 -16 30 -38 70 -49 89 -18 33 -114 184 -130 205 -5 6 -24 32 -43 58 -19 27
-45 60 -57 74 -13 14 -23 30 -23 34 0 10 -134 119 -147 119 -5 0 -13 -3 -16
-7z"/>
<path d="M7188 8410 c2 -17 8 -33 13 -36 5 -3 9 -20 9 -39 0 -19 4 -36 9 -39
5 -3 11 -18 14 -33 4 -16 11 -46 16 -68 l10 -40 -4 45 c-7 74 -17 120 -26 120
-5 0 -9 9 -9 20 0 26 -23 100 -31 100 -3 0 -4 -14 -1 -30z"/>
<path d="M7273 8120 c0 -25 2 -35 4 -22 2 12 2 32 0 45 -2 12 -4 2 -4 -23z"/>
<path d="M7821 7933 c-11 -173 -21 -286 -42 -483 -14 -134 -45 -355 -59 -430
-5 -25 -14 -76 -21 -115 -6 -38 -18 -81 -25 -95 -12 -22 -13 -11 -14 95 0 139
-9 227 -21 219 -5 -3 -9 -53 -9 -112 0 -245 -34 -639 -63 -734 -8 -25 -11 -50
-7 -55 11 -11 -28 -214 -44 -230 -9 -10 -22 -1 -60 45 -48 56 -102 117 -287
321 -52 57 -118 131 -148 165 -29 33 -70 79 -90 101 -223 246 -365 461 -502
763 -49 107 -68 93 -28 -22 24 -72 135 -299 182 -372 107 -170 357 -467 642
-764 61 -63 148 -154 193 -201 89 -93 101 -124 60 -152 -18 -11 -20 -18 -12
-27 29 -29 86 24 97 90 3 19 15 78 26 130 12 52 25 129 30 172 6 42 22 109 36
150 35 100 97 347 92 367 -3 9 -5 4 -6 -11 0 -16 -5 -28 -11 -28 -5 0 -14 -15
-19 -32 l-9 -33 -1 29 c-1 16 10 88 23 160 26 141 39 220 57 361 6 50 17 124
24 165 7 41 21 166 31 278 10 111 20 202 23 202 3 0 23 -40 43 -88 33 -74 58
-151 153 -452 14 -45 100 -393 108 -440 13 -71 70 -267 103 -355 34 -90 38
-110 38 -200 1 -87 3 -100 19 -103 12 -2 17 3 17 18 0 11 8 37 17 58 10 22 17
68 19 116 1 43 7 113 13 155 20 129 29 459 17 547 -12 78 -20 104 -34 104 -4
0 -7 -89 -7 -197 0 -199 -20 -459 -37 -478 -15 -16 -22 5 -82 248 -164 664
-216 827 -344 1077 -40 77 -44 92 -45 164 -1 48 -6 81 -13 83 -8 3 -15 -52
-23 -174z"/>
<path d="M7291 8024 c0 -11 3 -14 6 -6 3 7 2 16 -1 19 -3 4 -6 -2 -5 -13z"/>
<path d="M4318 7903 c-55 -118 -110 -264 -188 -508 -24 -71 -46 -139 -50 -150
-13 -33 -22 -63 -80 -255 -17 -58 -40 -132 -50 -165 -59 -184 -170 -638 -215
-877 -59 -315 -61 -326 -86 -548 -17 -152 -17 -445 1 -492 8 -21 16 -38 20
-38 3 0 5 87 6 193 0 227 24 456 74 722 6 28 19 100 30 160 27 142 55 267 98
435 19 74 36 146 39 160 10 48 165 586 213 740 27 85 56 180 66 210 48 155 84
257 154 438 18 46 30 85 28 88 -3 2 -30 -49 -60 -113z"/>
<path d="M5365 6470 c-4 -6 -2 -25 4 -43 30 -96 44 -297 43 -614 -1 -253 0
-273 18 -295 40 -49 43 -21 37 314 -3 172 -10 342 -17 378 -24 134 -33 176
-48 218 -16 46 -27 58 -37 42z"/>
<path d="M8404 6408 c17 -94 7 -328 -21 -488 -55 -319 -60 -376 -39 -406 26
-34 44 0 56 101 5 50 15 122 21 160 6 39 15 97 20 130 6 33 12 135 16 227 4
139 2 180 -12 238 -12 48 -22 70 -32 70 -12 0 -14 -8 -9 -32z"/>
<path d="M2697 5535 c-21 -20 -22 -39 -2 -55 11 -10 18 -10 29 -1 42 35 222
-65 298 -165 29 -39 47 -54 65 -54 57 0 38 53 -53 145 -108 108 -289 178 -337
130z"/>
<path d="M6970 4640 c-84 -9 -120 -24 -120 -49 0 -25 23 -33 58 -20 15 6 79
10 142 9 146 -3 140 -3 140 19 0 35 -100 54 -220 41z"/>
<path d="M4035 3020 c3 -5 8 -10 11 -10 2 0 4 5 4 10 0 6 -5 10 -11 10 -5 0
-7 -4 -4 -10z"/>
<path d="M6735 2221 c-3 -5 -1 -12 5 -16 5 -3 10 1 10 9 0 18 -6 21 -15 7z"/>
<path d="M8380 2050 c0 -5 5 -10 11 -10 5 0 7 5 4 10 -3 6 -8 10 -11 10 -2 0
-4 -4 -4 -10z"/>
<path d="M6190 1499 c0 -5 5 -7 10 -4 6 3 10 8 10 11 0 2 -4 4 -10 4 -5 0 -10
-5 -10 -11z"/>
</g>
</svg>
